<svg xmlns="http://www.w3.org/2000/svg" viewBox="0 0 64 64">
  <defs>
    <linearGradient id="bg" x1="0%" y1="0%" x2="100%" y2="100%">
      <stop offset="0%" style="stop-color:#1a1a2e"/>
      <stop offset="100%" style="stop-color:#0f0f23"/>
    </linearGradient>
    <linearGradient id="silk" x1="0%" y1="0%" x2="100%" y2="100%">
      <stop offset="0%" style="stop-color:#ff69b4"/>
      <stop offset="100%" style="stop-color:#c71585"/>
    </linearGradient>
    <linearGradient id="skin" x1="0%" y1="0%" x2="0%" y2="100%">
      <stop offset="0%" style="stop-color:#ffe4c4"/>
      <stop offset="100%" style="stop-color:#deb887"/>
    </linearGradient>
    <linearGradient id="gold" x1="0%" y1="0%" x2="100%" y2="100%">
      <stop offset="0%" style="stop-color:#ffd700"/>
      <stop offset="100%" style="stop-color:#cd7f32"/>
    </linearGradient>
  </defs>
  
  <circle cx="32" cy="32" r="30" fill="url(#bg)"/>
  <circle cx="32" cy="32" r="30" fill="none" stroke="url(#gold)" stroke-width="2"/>
  
  <!-- Robes hint -->
  <ellipse cx="32" cy="58" rx="20" ry="12" fill="url(#silk)"/>
  
  <!-- Face -->
  <ellipse cx="32" cy="32" rx="14" ry="18" fill="url(#skin)"/>
  
  <!-- Hair -->
  <ellipse cx="32" cy="25" rx="16" ry="15" fill="#1a1a1a"/>
  <circle cx="22" cy="18" r="6" fill="#1a1a1a"/>
  <circle cx="42" cy="18" r="6" fill="#1a1a1a"/>
  
  <!-- Hair ornaments -->
  <circle cx="22" cy="14" r="2" fill="url(#gold)"/>
  <circle cx="42" cy="14" r="2" fill="url(#gold)"/>
  <circle cx="32" cy="10" r="2" fill="#ff1493"/>
  
  <!-- Bangs -->
  <path d="M20 28 Q26 22 32 24 Q38 22 44 28 Q38 25 32 27 Q26 25 20 28" fill="#1a1a1a"/>
  
  <!-- Eyes -->
  <ellipse cx="27" cy="32" rx="3" ry="2" fill="white"/>
  <ellipse cx="37" cy="32" rx="3" ry="2" fill="white"/>
  <circle cx="27" cy="32" r="1.5" fill="#2d1f1f"/>
  <circle cx="37" cy="32" r="1.5" fill="#2d1f1f"/>
  
  <!-- Lips -->
  <path d="M29 40 Q32 38 35 40" fill="none" stroke="#c71585" stroke-width="1"/>
  
  <!-- Blush -->
  <ellipse cx="24" cy="36" rx="3" ry="1.5" fill="#ffb6c1" opacity="0.4"/>
  <ellipse cx="40" cy="36" rx="3" ry="1.5" fill="#ffb6c1" opacity="0.4"/>
</svg>
